<svg xmlns="http://www.w3.org/2000/svg" width="24" height="24" viewBox="0 0 24 24" fill="none" stroke="#031f5e" stroke-width="2" stroke-linecap="round" stroke-linejoin="round">
  <path d="M8 2h8"></path>
  <path d="M12 2v7c0 1.1-.9 2-2 2H6.5c-1.1 0-2 .9-2 2v7"></path>
  <path d="M20 2v7c0 1.1-.9 2-2 2h-3.5c-1.1 0-2 .9-2 2v7"></path>
  <path d="M6 17a2 2 0 0 1 2 2v1"></path>
  <path d="M10 17a2 2 0 0 0-2 2v1"></path>
  <path d="M14 17a2 2 0 0 1 2 2v1"></path>
  <path d="M18 17a2 2 0 0 0-2 2v1"></path>
</svg> 